<?xml version="1.0" encoding="UTF-8" standalone="no"?>
<!-- Created with Inkscape (http://www.inkscape.org/) -->

<svg
   xmlns:dc="http://purl.org/dc/elements/1.1/"
   xmlns:cc="http://creativecommons.org/ns#"
   xmlns:rdf="http://www.w3.org/1999/02/22-rdf-syntax-ns#"
   xmlns:svg="http://www.w3.org/2000/svg"
   xmlns="http://www.w3.org/2000/svg"
   xmlns:sodipodi="http://sodipodi.sourceforge.net/DTD/sodipodi-0.dtd"
   xmlns:inkscape="http://www.inkscape.org/namespaces/inkscape"
   width="466.68588mm"
   height="200.68645mm"
   viewBox="0 0 1653.6114 711.09371"
   id="svg2"
   version="1.1"
   inkscape:version="0.91 r13725"
   sodipodi:docname="logo_horiz.svg"
   inkscape:export-filename="C:\Users\johnvial\Documents\SOUNDelve\NewLogo\sd_horiz.png"
   inkscape:export-xdpi="1200.3"
   inkscape:export-ydpi="1200.3">
  <defs
     id="defs4" />
  <sodipodi:namedview
     id="base"
     pagecolor="#ffffff"
     bordercolor="#666666"
     borderopacity="1.0"
     inkscape:pageopacity="0.0"
     inkscape:pageshadow="2"
     inkscape:zoom="0.44031004"
     inkscape:cx="701.97084"
     inkscape:cy="282.92023"
     inkscape:document-units="px"
     inkscape:current-layer="layer1"
     showgrid="false"
     inkscape:window-width="1500"
     inkscape:window-height="937"
     inkscape:window-x="-8"
     inkscape:window-y="-8"
     inkscape:window-maximized="1"
     fit-margin-top="0"
     fit-margin-left="0"
     fit-margin-right="0"
     fit-margin-bottom="0" />
  <metadata
     id="metadata7">
    <rdf:RDF>
      <cc:Work
         rdf:about="">
        <dc:format>image/svg+xml</dc:format>
        <dc:type
           rdf:resource="http://purl.org/dc/dcmitype/StillImage" />
        <dc:title></dc:title>
      </cc:Work>
    </rdf:RDF>
  </metadata>
  <g
     inkscape:groupmode="layer"
     id="layer3"
     inkscape:label="Layer 3"
     transform="translate(-36.222539,-68.848737)" />
  <g
     inkscape:label="Layer 1"
     inkscape:groupmode="layer"
     id="layer1"
     transform="translate(-36.222539,-68.848737)">
    <text
       xml:space="preserve"
       style="font-style:normal;font-weight:normal;font-size:164.23777771px;line-height:125%;font-family:sans-serif;letter-spacing:0px;word-spacing:0px;fill:#031927;fill-opacity:1;stroke:none;stroke-width:1px;stroke-linecap:butt;stroke-linejoin:miter;stroke-opacity:1"
       x="147.28714"
       y="620.58746"
       id="text4144"
       sodipodi:linespacing="125%"
       transform="scale(0.99086059,1.0092237)"><tspan
         sodipodi:role="line"
         id="tspan4146"
         x="147.28714"
         y="620.58746"
         style="font-style:normal;font-variant:normal;font-weight:bold;font-stretch:normal;font-size:600.49438477px;font-family:Tahoma;-inkscape-font-specification:Tahoma;fill:#031927;fill-opacity:1">D</tspan></text>
    <text
       xml:space="preserve"
       style="font-style:normal;font-weight:normal;font-size:40px;line-height:125%;font-family:sans-serif;letter-spacing:0px;word-spacing:0px;fill:#ba1000;fill-opacity:1;stroke:none;stroke-width:1px;stroke-linecap:butt;stroke-linejoin:miter;stroke-opacity:1"
       x="688.15149"
       y="474.36032"
       id="text4207"
       sodipodi:linespacing="125%"><tspan
         sodipodi:role="line"
         id="tspan4209"
         x="688.15149"
         y="474.36032"
         style="font-style:normal;font-variant:normal;font-weight:normal;font-stretch:normal;font-size:180px;font-family:Tahoma;-inkscape-font-specification:Tahoma;fill:#ba1000;fill-opacity:1">SounDelve</tspan></text>
  </g>
  <g
     inkscape:groupmode="layer"
     id="layer2"
     inkscape:label="Layer 2"
     transform="translate(-36.222539,-68.848737)">
    <g
       transform="matrix(4.7896615,0,0,3.9560035,-287.03293,-1578.996)"
       style="font-style:normal;font-weight:normal;font-size:40px;line-height:125%;font-family:sans-serif;letter-spacing:0px;word-spacing:0px;fill:#9dd1f1;fill-opacity:1;stroke:none;stroke-width:1px;stroke-linecap:butt;stroke-linejoin:miter;stroke-opacity:1"
       id="flowRoot4136">
      <path
         id="path4170"
         style="font-style:normal;font-variant:normal;font-weight:normal;font-stretch:normal;font-size:146.25px;font-family:Tahoma;-inkscape-font-specification:Tahoma;fill:#9dd1f1;fill-opacity:1"
         d="m 134.70386,557.24938 c -7.71241,0 -14.28223,-0.78552 -19.70948,-2.35657 -5.37963,-1.61865 -10.44982,-3.59436 -15.210567,-5.92712 l 0,-17.70996 0.999757,0 c 4.66553,4.37988 9.94995,7.78381 15.85327,10.21179 5.90332,2.38037 11.59241,3.57056 17.06726,3.57056 7.80762,0 13.71094,-1.61865 17.70996,-4.85596 3.99903,-3.28491 5.99854,-7.59339 5.99854,-12.92542 0,-4.23706 -1.04736,-7.6886 -3.14209,-10.35461 -2.09473,-2.66601 -5.42725,-4.64172 -9.99756,-5.92712 -3.28491,-0.95215 -6.28418,-1.73768 -8.9978,-2.35657 -2.71363,-0.6189 -6.11756,-1.45203 -10.2118,-2.49939 -3.66577,-0.95215 -6.95068,-2.16614 -9.85473,-3.64197 -2.90405,-1.47583 -5.47485,-3.40393 -7.7124,-5.7843 -2.18995,-2.33277 -3.90382,-5.07019 -5.14161,-8.21228 -1.19018,-3.1897 -1.78527,-6.85547 -1.78527,-10.99732 0,-8.61694 3.35632,-15.82946 10.06897,-21.63757 6.71265,-5.85571 15.28198,-8.78357 25.708,-8.78357 5.95093,0 9.34731,0.1384 15.46996,2.29272 5.62541,2.05282 12.27114,7.34566 16.20708,12.3265 l -0.0419,9.16069 -1.07117,0 c -3.38013,-3.09448 -7.7124,-5.7843 -12.99683,-8.06946 -5.28442,-2.33276 -10.83068,-3.49914 -16.63879,-3.49914 -6.56983,0 -11.87805,1.54724 -15.92468,4.64172 -4.04663,3.04687 -6.06995,7.0697 -6.06995,12.06848 0,4.52271 1.19019,8.11707 3.57056,10.78308 2.38037,2.66602 5.8319,4.61792 10.35461,5.85571 2.99927,0.80933 6.66504,1.73767 10.99731,2.78504 4.33228,0.99975 7.92664,1.9281 10.78309,2.78503 7.33154,2.23755 12.68737,5.61768 16.0675,10.14038 3.38013,4.52271 5.07019,10.09278 5.07019,16.71021 0,4.14185 -0.85693,8.23608 -2.5708,12.28271 -1.66626,4.04663 -4.02283,7.47437 -7.0697,10.28321 -3.42773,3.09448 -7.30774,5.47485 -11.64002,7.14111 -4.28467,1.66626 -9.6643,2.49939 -16.13891,2.49939 z"
         inkscape:connector-curvature="0"
         sodipodi:nodetypes="ccccccscsscscsccscscccccscsscccsscccsc" />
    </g>
  </g>
</svg>
